<?xml version="1.0" encoding="UTF-8"?>
<svg id="b" data-name="Layer 2" xmlns="http://www.w3.org/2000/svg" width="84.89" height="64.51" viewBox="0 0 84.89 64.51">
  <g id="c" data-name="Logo">
    <polygon points="1.36 63.13 4.08 63.13 4.08 64.38 0 64.38 0 55.55 1.36 55.55 1.36 63.13"/>
    <path d="M9.75,61.58c.06,.73-.11,1.46-.5,2.08-.95,1.05-2.58,1.13-3.63,.18-.06-.06-.12-.12-.18-.18-.39-.62-.56-1.35-.5-2.08v-3.22c-.06-.73,.11-1.46,.5-2.08,.94-1.05,2.55-1.15,3.6-.21,.07,.07,.14,.14,.21,.21,.39,.62,.56,1.35,.5,2.08v3.22Zm-3.44,0c-.05,.41,0,.83,.17,1.21,.31,.48,.96,.62,1.44,.31,.12-.08,.23-.19,.31-.31,.16-.38,.22-.8,.17-1.21v-3.12c.05-.41,0-.82-.17-1.2-.31-.48-.96-.62-1.44-.31-.12,.08-.23,.19-.31,.31-.16,.38-.21,.79-.17,1.2v3.12Z"/>
    <path d="M15.74,61.58c.06,.73-.11,1.46-.5,2.08-.95,1.05-2.58,1.13-3.63,.18-.06-.06-.12-.12-.18-.18-.39-.62-.57-1.35-.51-2.08v-3.22c-.07-.73,.11-1.46,.51-2.08,.94-1.05,2.55-1.15,3.6-.21,.07,.07,.14,.14,.21,.21,.39,.62,.56,1.35,.5,2.08v3.22Zm-3.46,0c-.05,.41,.01,.83,.18,1.21,.18,.31,.52,.49,.87,.48,.35,0,.68-.18,.87-.48,.16-.38,.22-.8,.17-1.21v-3.12c.05-.41,0-.82-.17-1.2-.19-.3-.52-.48-.87-.48-.36-.01-.69,.17-.87,.48-.16,.38-.22,.79-.18,1.2v3.12Z"/>
    <polygon points="18.36 59.21 20.34 55.55 21.8 55.55 19.93 58.76 22.06 64.38 20.56 64.38 19.09 60.21 18.36 61.44 18.36 64.38 16.99 64.38 16.99 55.55 18.36 55.55 18.36 59.21"/>
    <polygon points="26.26 64.38 24.89 64.38 24.89 55.55 28.93 55.55 28.93 56.81 26.26 56.81 26.26 59.19 28.24 59.19 28.24 60.45 26.26 60.45 26.26 64.38"/>
    <path d="M34.59,61.58c.06,.73-.11,1.46-.5,2.08-.95,1.05-2.58,1.13-3.63,.18-.06-.06-.12-.12-.18-.18-.39-.62-.57-1.35-.51-2.08v-3.22c-.07-.73,.11-1.46,.51-2.08,.94-1.05,2.55-1.15,3.6-.21,.07,.07,.14,.14,.21,.21,.39,.62,.56,1.35,.5,2.08v3.22Zm-3.46,0c-.05,.41,.01,.83,.18,1.21,.31,.48,.96,.62,1.44,.31,.12-.08,.23-.19,.31-.31,.16-.38,.22-.8,.17-1.21v-3.12c.05-.41,0-.82-.17-1.2-.31-.48-.96-.62-1.44-.31-.12,.08-.23,.19-.31,.31-.16,.38-.22,.79-.18,1.2v3.12Z"/>
    <path d="M37.18,64.38h-1.36v-8.83h2.13c.63-.06,1.26,.13,1.75,.53,.55,.51,.84,1.25,.79,2,.1,.93-.37,1.83-1.19,2.29l1.29,4.01h-1.43l-1.17-3.62h-.82v3.62Zm.5-4.88c.58,0,.85-.06,1.04-.28,.24-.29,.36-.66,.33-1.04,.03-.38-.09-.75-.33-1.04-.21-.22-.48-.28-1.04-.28h-.5v2.69l.5-.04Z"/>
    <polygon points="46.18 64.38 44.81 64.38 44.81 56.81 43.11 56.81 43.11 55.55 47.89 55.55 47.89 56.81 46.18 56.81 46.18 64.38"/>
    <polygon points="50.21 60.49 50.21 64.38 48.85 64.38 48.85 55.55 50.21 55.55 50.21 59.24 52.16 59.24 52.16 55.55 53.52 55.55 53.52 64.38 52.16 64.38 52.16 60.49 50.21 60.49"/>
    <polygon points="58.85 56.81 56.22 56.81 56.22 59.14 58.16 59.14 58.16 60.4 56.22 60.4 56.22 63.13 58.85 63.13 58.85 64.39 54.86 64.39 54.86 55.55 58.85 55.55 58.85 56.81"/>
    <path d="M65.14,58.01c-.21-.87-.6-1.31-1.17-1.31-.48,0-.88,.38-.88,.86,0,.01,0,.02,0,.03,0,.33,.14,.65,.37,.89,.34,.37,.74,.69,1.17,.96,.48,.34,.93,.75,1.31,1.2,.36,.46,.56,1.03,.56,1.61,.02,1.22-.95,2.23-2.18,2.26-.08,0-.16,0-.24,0-1.39,.08-2.59-.98-2.67-2.38,0-.04,0-.07,0-.11l1.31-.39c.17,1.04,.63,1.59,1.36,1.59,.53,.05,.99-.34,1.04-.87,0-.06,0-.12,0-.17,0-.55-.28-.92-1.31-1.72-.62-.38-1.18-.86-1.65-1.42-.32-.42-.49-.94-.49-1.47-.01-1.19,.94-2.17,2.13-2.18,.06,0,.11,0,.17,0,1.27,0,2.33,.96,2.48,2.22l-1.31,.39Z"/>
    <polygon points="71.45 56.81 68.82 56.81 68.82 59.14 70.77 59.14 70.77 60.4 68.82 60.4 68.82 63.13 71.45 63.13 71.45 64.39 67.46 64.39 67.46 55.55 71.45 55.55 71.45 56.81"/>
    <path d="M74.04,62.46l-.36,1.91h-1.33l1.7-8.83h1.86l1.79,8.83h-1.4l-.37-1.91h-1.87Zm.93-5.2l-.72,3.95h1.45l-.73-3.95Z"/>
    <polygon points="79.99 63.13 82.7 63.13 82.7 64.38 78.62 64.38 78.62 55.55 79.99 55.55 79.99 63.13"/>
    <rect x="83.61" y="62.96" width="1.28" height="1.42"/>
    <g id="d" data-name="Logo">
      <path d="M42.44,53.32c-13.16-.02-24.34-9.64-26.34-22.65l-2.65,.26c-1.47,.09-2.73-1.02-2.83-2.49,0-.05,0-.11,0-.16l-.11-12.35c-.01-1.4,1.08-2.57,2.48-2.66,.33-.04,4.52-.45,6.81-.64C27.52,.12,43.93-3.75,56.44,3.98c3.52,2.17,6.48,5.14,8.65,8.65,2.29,.19,6.48,.6,6.81,.64,1.4,.09,2.49,1.26,2.48,2.66,0,0-.11,12.36-.11,12.35,0,1.47-1.2,2.66-2.67,2.65-.05,0-.11,0-.16,0-.87-.09-1.77-.17-2.65-.26-1.99,13.01-13.17,22.63-26.34,22.65" fill="#ffbf0f"/>
      <polygon points="29.56 29.05 31.37 29.05 32.81 32.32 34.32 29.05 36.15 29.05 37.22 35.18 35.38 35.18 34.87 31.65 34.85 31.65 33.15 35.18 32.42 35.18 30.8 31.65 30.78 31.65 30.19 35.18 28.36 35.18 29.56 29.05"/>
      <rect x="39.41" y="29.05" width="1.84" height="6.13"/>
      <polygon points="45.68 33.83 47.88 33.83 47.88 35.18 43.84 35.18 43.84 29.05 45.68 29.05 45.68 33.83"/>
      <polygon points="53.97 29.05 56.25 29.05 53.43 31.95 56.5 35.18 54.12 35.18 51.75 32.52 51.72 32.52 51.72 35.18 49.89 35.18 49.89 29.05 51.72 29.05 51.72 31.58 51.75 31.58 53.97 29.05"/>
      <path d="M35,12.41l-.87-1.84h-.41v1.84h-1.21V7.46h1.95c.86-.07,1.61,.57,1.68,1.43,0,.04,0,.09,0,.13,0,.55-.29,1.05-.78,1.3l1.07,2.06-1.43,.02Zm-.6-3.86h-.69v1h.69c.28,0,.5-.22,.5-.5,0-.28-.22-.5-.5-.5h0"/>
      <polygon points="38.1 12.37 38.1 7.42 41.47 7.42 41.47 8.5 39.32 8.5 39.32 9.33 41.16 9.33 41.16 10.41 39.32 10.41 39.32 11.28 41.47 11.28 41.47 12.37 38.1 12.37"/>
      <path d="M46.16,12.41l-.23-.74h-1.52l-.26,.74h-1.25l1.8-4.94h.94l1.8,4.94h-1.27Zm-.96-3.12l-.45,1.32h.86l-.41-1.32Z"/>
      <polygon points="49.01 12.37 49.01 7.42 50.23 7.42 50.23 11.28 52.31 11.28 52.31 12.37 49.01 12.37"/>
      <path d="M72.64,15.94c0-.51-.42-.93-.93-.93h0c-2.51-.27-5.06-.5-7.65-.7C57.24,2.38,42.04-1.78,30.1,5.04c-3.87,2.21-7.07,5.41-9.28,9.28-2.6,.2-5.16,.43-7.66,.7h0c-.51,0-.93,.42-.93,.93h0l.11,12.36h0c0,.51,.42,.93,.93,.93h0c1.44-.16,2.89-.3,4.35-.43,1.19,13.71,13.27,23.85,26.98,22.66,12.05-1.05,21.61-10.61,22.66-22.66,1.46,.13,2.91,.27,4.34,.43h0c.51,0,.93-.42,.93-.93h0l.11-12.36ZM42.44,3.89c7.66,0,14.8,3.84,19.02,10.23-6.16-.42-12.5-.64-19.03-.64s-12.85,.22-19.01,.63c4.22-6.39,11.36-10.23,19.02-10.22m-4.08,42.28c-.35,.03-.7,.08-1.05,.16-.1-.06-.2-.14-.28-.23-.07-.1-.14-.19-.2-.3-.05-.22-.07-.44-.05-.66-.04-.36,0-.72,.15-1.05,.09-.23,.19-.46,.3-.69,.11-.15,.21-.3,.3-.46,.1,.21,.23,.14,.36,.23-.03,.11-.07,.22-.12,.33-.06,.1,0,.2,.04,.3s.57,2.08,.57,2.14c.01,.08,.01,.16,0,.23m6.25,.14h.05c-1.44,0-1.37,.47-3.25,.1-.8-.17-1.61-.26-2.42-.28-.2-.5-.32-1.03-.35-1.56,0-.27,.05-.64,.06-.78,.06-.19,.14-.38,.23-.56,.05-.08,.1-.05,.1,0s0,.22,.06,.23,.14-.24,.16-.31c.05-.07,.11-.13,.18-.17,.04,.05,0,.26,.1,.27s.06-.04,.08-.09c.06-.27,0-.27,.29-.4,.17-.14,.33-.3,.48-.47,1.77,.78,3.26-.3,4.37,.26v.91c-.01,.25,0,.49,.05,.73-.01,.44-.08,.88-.22,1.3-.05,.12-.12,.16-.12,.21s.12,0,.17,.12c.04,.07,.04,.16,0,.23-.04,.05-.04,.12,0,.17m.08,0h0m.89,.06c-.16-.22-.29-.46-.41-.7-.04-.4-.01-.8,.07-1.19,.07-.11,.14-.23,.2-.36l-.05-.07h.08v.07c.07,.13,.11,.27,.11,.42,.01,.34,0,.67-.05,1.01-.04,.08-.04,.17,0,.24v.16s.13,.05,.19,.09,0,.24,0,.33h-.11m16.36-7.97l-.17-2.99-1.09,2.92-.97-2.89-.3,3.12-1.72-2.62,.46,3.09-2.34-2.09,1.29,2.84-2.8-1.41,1.98,2.41-3.07-.63,2.59,1.78-3.12,.17,2.92,1.09-2.98,.98,3.12,.3c-3.01,.93-2.46,3.01-9.11,2.13,0-.08-.2-.2-.24-.24s-.09-.21-.2-.29c-.08-.1-.12-.22-.12-.35-.05-.3-.07-.6-.07-.9,0-.1,.01-.21,.06-.3,.05-.09,0-.15,.08-.24,.05-.14,.08-.28,.06-.43,0-.18,.15-1.02,.15-1.02,.35-.05,.64-.28,.78-.6,0-.05,.2-.21,.41-.53,.17-.43,.3-.87,.38-1.32,.05-.08,.16-.62,.19-.68s.33-.41,.5-.66,.08-.23,.24-.41c.14-.11,.33-.14,.48-.05,.39,.03,.78,.03,1.16,0,.11,0,.32-.16,.37-.16s.16,.04,.24,.04c.11-.03,.2-.1,.27-.2,0-.05,.07-.05,.12-.09,.07-.08,.1-.19,.1-.3-.01-.12-.07-.23-.16-.3-.11-.04-.22-.08-.34-.09-.16-.1-.31-.22-.45-.35-.23-.17-.68-.45-.71-.51-.05-.11-.12-.2-.2-.29-.05-.09,0-.13,0-.2s-.33,0-.34,0c-.11-.07-.2-.14-.29-.23-.09-.11-.21-.19-.35-.22-.09,0-.14,.07-.12,.18s-.05,.12,0,.17,.05,.12,0,.16c-.16,.04-.31,.11-.45,.21-.59,.45-1.28,.75-2.02,.87-.18,0-.3-.14-.84,0-1.77,.17-3.54,.25-5.31,.23h0c-.12,0-.4-.09-.85-.12s-1.16-.09-1.49-.09c-.37-.01-.73,.14-.98,.41-.16,.15-.29,.34-.37,.55-.05,.19,.05,1.77-.05,2.34-.06,.35-.23,1.19-.23,1.19,0,0-.29,0-.4,.4s-.29,.42-.37,.55c-.06,.1-.09,.2-.11,.31,.07-.17,.2-.3,.36-.38-.19,.22-.31,.49-.33,.78,.08-.18,.2-.33,.36-.44-.23,.23-.38,.53-.41,.86l.14-.2c0,.05,0,.1,0,.16l.18-.13c-.14,.18-.24,.38-.3,.6,.08-.15,.18-.28,.3-.39-.13,.26-.22,.54-.24,.83,.08-.28,.25-.52,.47-.71,.24-.17,.39-.44,.41-.73,.07-.25,.17-.49,.28-.73,.1-.22,.06-.47-.09-.66,.05-.24,.11-.61,.19-1.28,.09-.52,.13-1.04,.12-1.56-.05-.67,.09-.7,.09-.7,0,.49,.05,.98,.16,1.46,.04,.74,.01,1.49-.08,2.23-.08,.28-.19,.54-.34,.78-.09,.16-.13,.35-.12,.53,0,.21,0,2.17-.07,2.24-.06,.08-.1,.18-.1,.29,0,.09,.11,.1,.15,.15,.06,.13,.14,.25,.23,.37-1.18-.27-3.66-1.77-8.72-2.25-4.63-3.89-7.53-9.46-8.04-15.49,7.29-.59,14.89-.91,22.7-.91,7.8,0,15.41,.33,22.71,.91-.3,3.46-1.38,6.8-3.16,9.78"/>
      <path d="M19.94,23.75c0,1.56-.07,1.9-.53,2.48-.53,.59-1.3,.93-2.09,.92-.78,.07-1.55-.22-2.1-.78-.45-.58-.53-.87-.53-2.42v-4.14c0-1.56,.08-1.87,.53-2.46,.54-.59,1.3-.92,2.1-.93,.78-.06,1.55,.22,2.09,.78,.48,.59,.53,.87,.53,2.42v.67l-1.66,.05v-1.41c0-.98-.25-1.34-.95-1.31s-.99,.38-.99,1.38v5.61c0,.99,.26,1.35,.95,1.33s.99-.38,.99-1.39v-1.85l1.66-.05v1.12Z" fill="#fff"/>
      <path d="M22.75,24.67l-.31,2.04-1.56,.12,1.68-10.79,1.96-.12,1.96,10.56-1.56,.09-.39-1.97-1.77,.09Zm1.06-4.93l-.15-1.05-.11-.87-.07,.85-.15,1.09-.42,3.57,1.39-.08-.49-3.52Z" fill="#fff"/>
      <polygon points="29.38 24.98 32.03 24.86 32.03 26.19 27.74 26.38 27.74 15.72 29.38 15.64 29.38 24.98" fill="#fff"/>
      <polygon points="35.06 26.12 33.4 26.16 33.4 15.48 35.06 15.44 35.06 26.12" fill="#fff"/>
      <polygon points="38.18 21.19 38.18 26.06 36.53 26.08 36.52 15.41 40.73 15.34 40.73 16.67 38.18 16.71 38.18 19.85 40.52 19.81 40.52 21.15 38.18 21.19" fill="#fff"/>
      <path d="M47.12,22.75c0,1.56-.08,1.91-.54,2.46-1.16,1.16-3.03,1.16-4.19,0,0,0,0,0,0,0-.46-.59-.53-.89-.53-2.44v-4.12c0-1.56,.07-1.87,.53-2.44,.54-.57,1.3-.88,2.09-.86,.79-.03,1.56,.28,2.09,.86,.48,.61,.54,.9,.54,2.44v4.1Zm-3.6,.78c0,.98,.25,1.35,.95,1.35s.99-.35,.99-1.35v-5.59c0-.99-.26-1.36-.96-1.36s-.98,.35-.98,1.36v5.59Z" fill="#fff"/>
      <path d="M51.33,15.45c1.07,0,1.44,.12,1.73,.52,.33,.62,.47,1.32,.39,2.02v.78c0,1.45-.26,1.87-1.23,2,.99,.26,1.23,.7,1.23,2.24v1.33c-.04,.65,.07,1.3,.32,1.91l-1.68-.07c-.22-.67-.32-1.38-.3-2.09v-.94c0-1.37-.22-1.89-.78-1.91h-.71v4.88h-1.67V15.39l2.7,.06Zm-1.09,4.57h.98c.48,0,.57-.15,.57-1.09v-1.01c0-.94-.09-1.16-.57-1.17h-.98v3.27Z" fill="#fff"/>
      <polygon points="58.29 26.43 56.18 18.08 56.23 18.77 56.32 19.79 56.36 20.44 56.53 26.36 54.99 26.29 54.99 15.6 56.69 15.68 58.46 22.28 58.6 22.87 58.73 23.47 58.82 23.86 58.78 23.25 58.67 21.92 58.62 21.1 58.5 15.77 60.09 15.87 60.1 26.55 58.29 26.43" fill="#fff"/>
      <polygon points="63.35 26.76 61.7 26.64 61.68 15.99 63.35 16.11 63.35 26.76" fill="#fff"/>
      <path d="M66.52,24.98l-.32,2.02-1.56-.13,1.69-10.51,1.96,.17,1.98,10.85-1.56-.16-.4-2.09-1.8-.14Zm1.07-4.76l-.15-1.07-.11-.88-.07,.84-.15,1.08-.42,3.51,1.39,.12-.49-3.58Z" fill="#fff"/>
      <path d="M61.2,39.63c-.24-.05-.49-.08-.74-.08-1.99,0-3.62,1.6-3.62,3.59,0,.37,.05,.74,.16,1.09,1.6-1.33,3.02-2.87,4.2-4.58" fill="#fff"/>
      <path d="M70.51,31.73c.62,.02,1.11,.53,1.09,1.16-.02,.62-.53,1.11-1.16,1.09-.61-.02-1.09-.52-1.09-1.12,0-.62,.49-1.12,1.11-1.13,.02,0,.03,0,.05,0m0,2.01c.49,.02,.9-.36,.91-.85,.02-.49-.36-.9-.85-.91-.49-.02-.9,.36-.91,.85,0,.01,0,.02,0,.03-.02,.47,.35,.86,.82,.88,.01,0,.02,0,.03,0m-.45-1.52h.47c.32,0,.5,.1,.5,.37,0,.18-.13,.33-.3,.34-.01,0-.02,0-.03,0l.34,.55h-.26l-.3-.54h-.16v.55h-.25v-1.27Zm.25,.52h.22c.14,0,.25,0,.25-.17s-.15-.16-.26-.16h-.21v.33Z"/>
    </g>
  </g>
</svg>