<?xml version="1.0" encoding="UTF-8"?>
<svg id="b" data-name="Layer 2" xmlns="http://www.w3.org/2000/svg" width="72.64" height="64.55" viewBox="0 0 72.64 64.55">
  <g id="c" data-name="Text">
    <path d="M0,55.4H2.08c1.69,0,2.63,.82,2.63,2.28,0,1.07-.47,1.7-1.49,2.01,1.22,.35,1.7,.97,1.7,2.16,0,1.59-1,2.55-2.67,2.55H0v-9.01Zm1.89,3.67c.85,0,1.4-.5,1.4-1.27,0-.34-.12-.63-.34-.84-.23-.2-.51-.28-1.04-.28h-.53v2.39h.5Zm.2,4.05c.88,0,1.39-.46,1.39-1.27,0-.9-.62-1.5-1.59-1.5h-.5v2.77h.7Z"/>
    <path d="M10.92,61.51c0,1.13-.14,1.71-.51,2.23-.41,.53-1.05,.81-1.88,.81s-1.47-.28-1.86-.81c-.38-.51-.51-1.09-.51-2.23v-6.1h1.39v6.33c0,1.05,.3,1.5,1,1.5s.99-.45,.99-1.5v-6.33h1.39v6.1Z"/>
    <path d="M13.3,61.61c.17,1.07,.65,1.62,1.39,1.62,.61,0,1.03-.42,1.03-1.03,0-.57-.27-.92-1.34-1.76-1.26-1-1.3-1.04-1.65-1.47-.32-.42-.5-.95-.5-1.5,0-1.3,.97-2.21,2.35-2.21,1.28,0,2.15,.77,2.53,2.25l-1.34,.39c-.22-.88-.62-1.34-1.19-1.34-.51,0-.9,.39-.9,.92,0,.31,.13,.65,.38,.9q.23,.24,1.19,.99c.76,.59,1.04,.85,1.34,1.21,.36,.45,.58,1.05,.58,1.65,0,1.36-1,2.3-2.47,2.3s-2.44-.84-2.73-2.54l1.34-.39Z"/>
    <path d="M23.09,61.56c0,1.94-.85,2.98-2.47,2.98-.9,0-1.62-.35-2.01-1-.34-.55-.43-1.08-.43-2.42v-2.53c0-1.42,.11-1.93,.53-2.5,.39-.54,1.08-.84,1.9-.84,1.54,0,2.44,1.03,2.44,2.8v.27h-1.39v-.19c0-1.03-.36-1.57-1.07-1.57-.35,0-.65,.16-.81,.45-.16,.3-.22,.57-.22,1.3v3c0,.69,.04,1.04,.15,1.34,.13,.35,.49,.58,.9,.58,.72,0,1.08-.58,1.08-1.76,0-.04,0-.13-.01-.23h1.4v.31Z"/>
    <path d="M25.62,55.4h1.9l1.82,9.01h-1.43l-.38-1.96h-1.92l-.36,1.96h-1.36l1.73-9.01Zm1.69,5.77l-.74-4.04-.73,4.04h1.47Z"/>
    <path d="M32.37,55.4h4.08v1.28h-2.69v2.38h1.98v1.28h-1.98v2.78h2.69v1.28h-4.08v-9.01Z"/>
    <path d="M37.41,55.4h1.39v7.72h2.77v1.28h-4.16v-9.01Z"/>
    <path d="M45.41,61.61c.17,1.07,.65,1.62,1.39,1.62,.61,0,1.03-.42,1.03-1.03,0-.57-.27-.92-1.34-1.76-1.26-1-1.3-1.04-1.65-1.47-.32-.42-.5-.95-.5-1.5,0-1.3,.97-2.21,2.35-2.21,1.28,0,2.15,.77,2.53,2.25l-1.34,.39c-.22-.88-.62-1.34-1.19-1.34-.51,0-.9,.39-.9,.92,0,.31,.13,.65,.38,.9q.23,.24,1.19,.99c.76,.59,1.04,.85,1.34,1.21,.36,.45,.58,1.05,.58,1.65,0,1.36-1,2.3-2.47,2.3s-2.44-.84-2.73-2.54l1.34-.39Z"/>
    <path d="M50.25,55.4h4.08v1.28h-2.69v2.38h1.98v1.28h-1.98v2.78h2.69v1.28h-4.08v-9.01Z"/>
    <path d="M55.28,55.4h1.39v7.72h2.77v1.28h-4.16v-9.01Z"/>
    <path d="M60.3,55.4h1.39v7.72h2.77v1.28h-4.16v-9.01Z"/>
    <path d="M70.23,61.55c0,1.01-.15,1.62-.51,2.13-.4,.55-1.09,.86-1.94,.86s-1.54-.31-1.94-.86c-.36-.51-.51-1.12-.51-2.13v-3.28c0-1.01,.15-1.62,.51-2.13,.41-.57,1.08-.86,1.94-.86s1.54,.3,1.94,.86c.37,.51,.51,1.12,.51,2.13v3.28Zm-3.52-.03c0,.71,.04,.96,.17,1.23,.16,.3,.5,.49,.89,.49s.73-.19,.89-.49c.15-.27,.18-.5,.18-1.23v-3.23c0-.73-.03-.95-.18-1.23-.16-.3-.5-.49-.89-.49s-.73,.19-.89,.49c-.13,.27-.17,.51-.17,1.23v3.23Z"/>
    <path d="M71.33,62.97h1.31v1.45h-1.31v-1.45Z"/>
  </g>
  <g id="d" data-name="Logo">
    <g id="e" data-name="Logo">
      <path d="M36.23,53.32c-13.16-.02-24.34-9.64-26.34-22.65l-2.65,.26c-1.47,.09-2.73-1.02-2.83-2.49,0-.05,0-.11,0-.16l-.11-12.35c-.01-1.4,1.08-2.57,2.48-2.66,.33-.04,4.52-.45,6.81-.64C21.31,.12,37.72-3.75,50.23,3.98c3.52,2.17,6.48,5.14,8.65,8.65,2.29,.19,6.48,.6,6.81,.64,1.4,.09,2.49,1.26,2.48,2.66,0,0-.11,12.36-.11,12.35,0,1.47-1.2,2.66-2.67,2.65-.05,0-.11,0-.16,0-.87-.09-1.77-.17-2.65-.26-1.99,13.01-13.17,22.63-26.34,22.65" fill="#ffbf0f"/>
      <polygon points="23.35 29.05 25.16 29.05 26.6 32.32 28.11 29.05 29.94 29.05 31.01 35.18 29.17 35.18 28.66 31.65 28.63 31.65 26.94 35.18 26.21 35.18 24.59 31.65 24.56 31.65 23.98 35.18 22.15 35.18 23.35 29.05"/>
      <rect x="33.2" y="29.05" width="1.84" height="6.13"/>
      <polygon points="39.47 33.83 41.67 33.83 41.67 35.18 37.63 35.18 37.63 29.05 39.47 29.05 39.47 33.83"/>
      <polygon points="47.75 29.05 50.03 29.05 47.22 31.95 50.28 35.18 47.91 35.18 45.54 32.52 45.51 32.52 45.51 35.18 43.68 35.18 43.68 29.05 45.51 29.05 45.51 31.58 45.54 31.58 47.75 29.05"/>
      <path d="M28.79,12.41l-.87-1.84h-.41v1.84h-1.21V7.46h1.95c.86-.07,1.61,.57,1.68,1.43,0,.04,0,.09,0,.13,0,.55-.29,1.05-.78,1.3l1.07,2.06-1.43,.02Zm-.6-3.86h-.69v1h.69c.28,0,.5-.22,.5-.5,0-.28-.22-.5-.5-.5h0"/>
      <polygon points="31.89 12.37 31.89 7.42 35.26 7.42 35.26 8.5 33.11 8.5 33.11 9.33 34.94 9.33 34.94 10.41 33.11 10.41 33.11 11.28 35.26 11.28 35.26 12.37 31.89 12.37"/>
      <path d="M39.95,12.41l-.23-.74h-1.52l-.26,.74h-1.25l1.8-4.94h.94l1.8,4.94h-1.27Zm-.96-3.12l-.45,1.32h.86l-.41-1.32Z"/>
      <polygon points="42.8 12.37 42.8 7.42 44.02 7.42 44.02 11.28 46.1 11.28 46.1 12.37 42.8 12.37"/>
      <path d="M66.43,15.94c0-.51-.42-.93-.93-.93h0c-2.51-.27-5.06-.5-7.65-.7C51.03,2.38,35.83-1.78,23.89,5.04c-3.87,2.21-7.07,5.41-9.28,9.28-2.6,.2-5.16,.43-7.66,.7h0c-.51,0-.93,.42-.93,.93h0l.11,12.36h0c0,.51,.42,.93,.93,.93h0c1.44-.16,2.89-.3,4.35-.43,1.19,13.71,13.27,23.85,26.98,22.66,12.05-1.05,21.61-10.61,22.66-22.66,1.46,.13,2.91,.27,4.34,.43h0c.51,0,.93-.42,.93-.93h0l.11-12.36ZM36.23,3.89c7.66,0,14.8,3.84,19.02,10.23-6.16-.42-12.5-.64-19.03-.64s-12.85,.22-19.01,.63C21.43,7.73,28.57,3.89,36.23,3.89m-4.08,42.28c-.35,.03-.7,.08-1.05,.16-.1-.06-.2-.14-.28-.23-.07-.1-.14-.19-.2-.3-.05-.22-.07-.44-.05-.66-.04-.36,0-.72,.15-1.05,.09-.23,.19-.46,.3-.69,.11-.15,.21-.3,.3-.46,.1,.21,.23,.14,.36,.23-.03,.11-.07,.22-.12,.33-.06,.1,0,.2,.04,.3s.57,2.08,.57,2.14c.01,.08,.01,.16,0,.23m6.25,.14h.05c-1.44,0-1.37,.47-3.25,.1-.8-.17-1.61-.26-2.42-.28-.2-.5-.32-1.03-.35-1.56,0-.27,.05-.64,.06-.78,.06-.19,.14-.38,.23-.56,.05-.08,.1-.05,.1,0s0,.22,.06,.23,.14-.24,.16-.31c.05-.07,.11-.13,.18-.17,.04,.05,0,.26,.1,.27s.06-.04,.08-.09c.06-.27,0-.27,.29-.4,.17-.14,.33-.3,.48-.47,1.77,.78,3.26-.3,4.37,.26v.91c-.01,.25,0,.49,.05,.73-.01,.44-.08,.88-.22,1.3-.05,.12-.12,.16-.12,.21s.12,0,.17,.12c.04,.07,.04,.16,0,.23-.04,.05-.04,.12,0,.17m.08,0h0m.89,.06c-.16-.22-.29-.46-.41-.7-.04-.4-.01-.8,.07-1.19,.07-.11,.14-.23,.2-.36l-.05-.07h.08v.07c.07,.13,.11,.27,.11,.42,.01,.34,0,.67-.05,1.01-.04,.08-.04,.17,0,.24v.16s.13,.05,.19,.09,0,.24,0,.33h-.11m16.36-7.97l-.17-2.99-1.09,2.92-.97-2.89-.3,3.12-1.72-2.62,.46,3.09-2.34-2.09,1.29,2.84-2.8-1.41,1.98,2.41-3.07-.63,2.59,1.78-3.12,.17,2.92,1.09-2.98,.98,3.12,.3c-3.01,.93-2.46,3.01-9.11,2.13,0-.08-.2-.2-.24-.24s-.09-.21-.2-.29c-.08-.1-.12-.22-.12-.35-.05-.3-.07-.6-.07-.9,0-.1,.01-.21,.06-.3,.05-.09,0-.15,.08-.24,.05-.14,.08-.28,.06-.43,0-.18,.15-1.02,.15-1.02,.35-.05,.64-.28,.78-.6,0-.05,.2-.21,.41-.53,.17-.43,.3-.87,.38-1.32,.05-.08,.16-.62,.19-.68s.33-.41,.5-.66,.08-.23,.24-.41c.14-.11,.33-.14,.48-.05,.39,.03,.78,.03,1.16,0,.11,0,.32-.16,.37-.16s.16,.04,.24,.04c.11-.03,.2-.1,.27-.2,0-.05,.07-.05,.12-.09,.07-.08,.1-.19,.1-.3-.01-.12-.07-.23-.16-.3-.11-.04-.22-.08-.34-.09-.16-.1-.31-.22-.45-.35-.23-.17-.68-.45-.71-.51-.05-.11-.12-.2-.2-.29-.05-.09,0-.13,0-.2s-.33,0-.34,0c-.11-.07-.2-.14-.29-.23-.09-.11-.21-.19-.35-.22-.09,0-.14,.07-.12,.18s-.05,.12,0,.17,.05,.12,0,.16c-.16,.04-.31,.11-.45,.21-.59,.45-1.28,.75-2.02,.87-.18,0-.3-.14-.84,0-1.77,.17-3.54,.25-5.31,.23h0c-.12,0-.4-.09-.85-.12s-1.16-.09-1.49-.09c-.37-.01-.73,.14-.98,.41-.16,.15-.29,.34-.37,.55-.05,.19,.05,1.77-.05,2.34-.06,.35-.23,1.19-.23,1.19,0,0-.29,0-.4,.4s-.29,.42-.37,.55c-.06,.1-.09,.2-.11,.31,.07-.17,.2-.3,.36-.38-.19,.22-.31,.49-.33,.78,.08-.18,.2-.33,.36-.44-.23,.23-.38,.53-.41,.86l.14-.2c0,.05,0,.1,0,.16l.18-.13c-.14,.18-.24,.38-.3,.6,.08-.15,.18-.28,.3-.39-.13,.26-.22,.54-.24,.83,.08-.28,.25-.52,.47-.71,.24-.17,.39-.44,.41-.73,.07-.25,.17-.49,.28-.73,.1-.22,.06-.47-.09-.66,.05-.24,.11-.61,.19-1.28,.09-.52,.13-1.04,.12-1.56-.05-.67,.09-.7,.09-.7,0,.49,.05,.98,.16,1.46,.04,.74,.01,1.49-.08,2.23-.08,.28-.19,.54-.34,.78-.09,.16-.13,.35-.12,.53,0,.21,0,2.17-.07,2.24-.06,.08-.1,.18-.1,.29,0,.09,.11,.1,.15,.15,.06,.13,.14,.25,.23,.37-1.18-.27-3.66-1.77-8.72-2.25-4.63-3.89-7.53-9.46-8.04-15.49,7.29-.59,14.89-.91,22.7-.91,7.8,0,15.41,.33,22.71,.91-.3,3.46-1.38,6.8-3.16,9.78"/>
      <path d="M13.73,23.75c0,1.56-.07,1.9-.53,2.48-.53,.59-1.3,.93-2.09,.92-.78,.07-1.55-.22-2.1-.78-.45-.58-.53-.87-.53-2.42v-4.14c0-1.56,.08-1.87,.53-2.46,.54-.59,1.3-.92,2.1-.93,.78-.06,1.55,.22,2.09,.78,.48,.59,.53,.87,.53,2.42v.67l-1.66,.05v-1.41c0-.98-.25-1.34-.95-1.31s-.99,.38-.99,1.38v5.61c0,.99,.26,1.35,.95,1.33s.99-.38,.99-1.39v-1.85l1.66-.05v1.12Z" fill="#fff"/>
      <path d="M16.54,24.67l-.31,2.04-1.56,.12,1.68-10.79,1.96-.12,1.96,10.56-1.56,.09-.39-1.97-1.77,.09Zm1.06-4.93l-.15-1.05-.11-.87-.07,.85-.15,1.09-.42,3.57,1.39-.08-.49-3.52Z" fill="#fff"/>
      <polygon points="23.17 24.98 25.81 24.86 25.81 26.19 21.53 26.38 21.53 15.72 23.17 15.64 23.17 24.98" fill="#fff"/>
      <polygon points="28.84 26.12 27.19 26.16 27.19 15.48 28.84 15.44 28.84 26.12" fill="#fff"/>
      <polygon points="31.97 21.19 31.97 26.06 30.32 26.08 30.31 15.41 34.52 15.34 34.52 16.67 31.97 16.71 31.97 19.85 34.3 19.81 34.3 21.15 31.97 21.19" fill="#fff"/>
      <path d="M40.9,22.75c0,1.56-.08,1.91-.54,2.46-1.16,1.16-3.03,1.16-4.19,0,0,0,0,0,0,0-.46-.59-.53-.89-.53-2.44v-4.12c0-1.56,.07-1.87,.53-2.44,.54-.57,1.3-.88,2.09-.86,.79-.03,1.56,.28,2.09,.86,.48,.61,.54,.9,.54,2.44v4.1Zm-3.6,.78c0,.98,.25,1.35,.95,1.35s.99-.35,.99-1.35v-5.59c0-.99-.26-1.36-.96-1.36s-.98,.35-.98,1.36v5.59Z" fill="#fff"/>
      <path d="M45.12,15.45c1.07,0,1.44,.12,1.73,.52,.33,.62,.47,1.32,.39,2.02v.78c0,1.45-.26,1.87-1.23,2,.99,.26,1.23,.7,1.23,2.24v1.33c-.04,.65,.07,1.3,.32,1.91l-1.68-.07c-.22-.67-.32-1.38-.3-2.09v-.94c0-1.37-.22-1.89-.78-1.91h-.71v4.88h-1.67V15.39l2.7,.06Zm-1.09,4.57h.98c.48,0,.57-.15,.57-1.09v-1.01c0-.94-.09-1.16-.57-1.17h-.98v3.27Z" fill="#fff"/>
      <polygon points="52.08 26.43 49.96 18.08 50.02 18.77 50.11 19.79 50.14 20.44 50.32 26.36 48.78 26.29 48.78 15.6 50.48 15.68 52.24 22.28 52.39 22.87 52.52 23.47 52.61 23.86 52.57 23.25 52.46 21.92 52.41 21.1 52.28 15.77 53.88 15.87 53.88 26.55 52.08 26.43" fill="#fff"/>
      <polygon points="57.14 26.76 55.49 26.64 55.47 15.99 57.14 16.11 57.14 26.76" fill="#fff"/>
      <path d="M60.3,24.98l-.32,2.02-1.56-.13,1.69-10.51,1.96,.17,1.98,10.85-1.56-.16-.4-2.09-1.8-.14Zm1.07-4.76l-.15-1.07-.11-.88-.07,.84-.15,1.08-.42,3.51,1.39,.12-.49-3.58Z" fill="#fff"/>
      <path d="M54.99,39.63c-.24-.05-.49-.08-.74-.08-1.99,0-3.62,1.6-3.62,3.59,0,.37,.05,.74,.16,1.09,1.6-1.33,3.02-2.87,4.2-4.58" fill="#fff"/>
      <path d="M64.3,31.73c.62,.02,1.11,.53,1.09,1.16-.02,.62-.53,1.11-1.16,1.09-.61-.02-1.09-.52-1.09-1.12,0-.62,.49-1.12,1.11-1.13,.02,0,.03,0,.05,0m0,2.01c.49,.02,.9-.36,.91-.85,.02-.49-.36-.9-.85-.91-.49-.02-.9,.36-.91,.85,0,.01,0,.02,0,.03-.02,.47,.35,.86,.82,.88,.01,0,.02,0,.03,0m-.45-1.52h.47c.32,0,.5,.1,.5,.37,0,.18-.13,.33-.3,.34-.01,0-.02,0-.03,0l.34,.55h-.26l-.3-.54h-.16v.55h-.25v-1.27Zm.25,.52h.22c.14,0,.25,0,.25-.17s-.15-.16-.26-.16h-.21v.33Z"/>
    </g>
  </g>
</svg>